<?xml version="1.0" standalone="no"?>
<!DOCTYPE svg PUBLIC "-//W3C//DTD SVG 20010904//EN"
 "http://www.w3.org/TR/2001/REC-SVG-20010904/DTD/svg10.dtd">
<svg version="1.0" xmlns="http://www.w3.org/2000/svg"
 width="96.000000pt" height="96.000000pt" viewBox="0 0 96.000000 96.000000"
 preserveAspectRatio="xMidYMid meet">
<metadata>
Created by potrace 1.14, written by Peter Selinger 2001-2017
</metadata>
<g transform="translate(0.000000,96.000000) scale(0.100000,-0.100000)"
fill="#000000" stroke="none">
<path fill="#6e7c91" d="M105 855 l-25 -24 0 -278 0 -277 63 62 63 62 212 0 c283 0 262 -19
262 240 0 189 0 191 -25 215 l-24 25 -251 0 -251 0 -24 -25z"/>
<path fill="#6e7c91" d="M720 569 c0 -197 -16 -209 -269 -209 l-171 0 0 -55 c0 -46 4 -60 25
-80 l24 -25 218 0 217 0 58 -57 58 -57 0 272 0 273 -25 24 c-20 21 -34 25 -80
25 l-55 0 0 -111z"/>
</g>
</svg>
