<?xml version="1.0" standalone="no"?>
<!DOCTYPE svg PUBLIC "-//W3C//DTD SVG 20010904//EN"
 "http://www.w3.org/TR/2001/REC-SVG-20010904/DTD/svg10.dtd">
<svg version="1.0" xmlns="http://www.w3.org/2000/svg"
 width="96.000000pt" height="96.000000pt" viewBox="0 0 96.000000 96.000000"
 preserveAspectRatio="xMidYMid meet">
<metadata>
Created by potrace 1.14, written by Peter Selinger 2001-2017
</metadata>
<g transform="translate(0.000000,96.000000) scale(0.100000,-0.100000)"
fill="#000000" stroke="none">
<path fill="#6e7c91" d="M105 855 l-25 -24 0 -351 0 -351 25 -24 24 -25 351 0 351 0 24 25 25
24 0 351 0 351 -25 24 -24 25 -351 0 -351 0 -24 -25z m575 -215 l0 -40 -200 0
-200 0 0 40 0 40 200 0 200 0 0 -40z m0 -160 l0 -40 -200 0 -200 0 0 40 0 40
200 0 200 0 0 -40z m0 -160 l0 -40 -200 0 -200 0 0 40 0 40 200 0 200 0 0 -40z"/>
</g>
</svg>
