<?xml version="1.0" standalone="no"?>
<!DOCTYPE svg PUBLIC "-//W3C//DTD SVG 20010904//EN"
 "http://www.w3.org/TR/2001/REC-SVG-20010904/DTD/svg10.dtd">
<svg version="1.0" xmlns="http://www.w3.org/2000/svg"
 width="512.000000pt" height="512.000000pt" viewBox="0 0 512.000000 512.000000"
 preserveAspectRatio="xMidYMid meet">
<metadata>
Created by potrace 1.14, written by Peter Selinger 2001-2017
</metadata>
<g transform="translate(0.000000,512.000000) scale(0.100000,-0.100000)"
fill="#6e7c91" stroke="none">
<path fill="#6e7c91" d="M1550 4717 c-80 -26 -150 -125 -150 -212 0 -119 105 -225 224 -225
191 0 292 235 162 378 -50 56 -162 84 -236 59z"/>
<path d="M3426 4715 c-168 -60 -206 -271 -71 -383 87 -71 205 -68 287 6 102
92 105 229 9 323 -67 65 -144 83 -225 54z"/>
<path fill="#6e7c91" d="M2499 4286 c-106 -22 -184 -97 -215 -205 -42 -142 47 -308 186 -350
156 -47 321 41 366 196 60 208 -124 403 -337 359z"/>
<path fill="#6e7c91" d="M1350 4233 c-88 -15 -167 -58 -202 -110 -17 -26 -18 -58 -18 -459 l0
-431 23 -21 c31 -29 105 -30 138 -3 l24 19 3 336 c2 287 5 336 17 336 13 0 15
-112 15 -855 0 -930 -2 -897 55 -923 34 -16 113 -15 145 1 14 7 33 28 42 47
16 32 18 79 18 538 0 439 2 502 15 502 13 0 15 -64 15 -516 l0 -516 34 -34
c31 -31 39 -34 95 -34 52 0 65 4 91 28 16 15 33 41 36 57 5 26 1 33 -26 48
-17 11 -35 30 -41 44 -30 78 -36 1139 -7 1233 6 19 26 56 44 83 l34 47 0 125
c0 104 2 125 15 125 12 0 15 -19 15 -115 l0 -115 38 24 c20 14 63 35 95 47
l57 22 0 159 c0 169 -5 192 -52 234 -36 33 -98 61 -163 73 -55 10 -499 14
-555 4z"/>
<path fill="#6e7c91" d="M3200 4226 c-69 -15 -126 -45 -165 -86 l-30 -31 0 -175 0 -175 54
-20 c30 -10 72 -30 93 -44 l38 -25 0 115 c0 96 3 115 15 115 13 0 15 -21 15
-125 l0 -125 35 -45 c19 -25 39 -62 46 -83 8 -26 13 -207 16 -590 6 -618 7
-605 -63 -675 -31 -30 -35 -40 -29 -66 3 -17 20 -42 37 -56 24 -21 40 -25 90
-25 55 0 63 3 94 34 l34 34 0 516 c0 452 2 516 15 516 13 0 15 -62 15 -500 0
-538 1 -549 51 -584 28 -19 116 -22 154 -4 57 26 55 -7 55 923 0 743 2 855 15
855 12 0 15 -49 17 -336 l3 -336 24 -19 c35 -28 111 -26 139 4 22 23 22 26 22
453 0 406 -1 431 -19 458 -30 45 -95 83 -171 100 -87 20 -514 21 -600 2z"/>
<path fill="#6e7c91" d="M2165 3646 c-72 -18 -136 -49 -177 -85 -70 -62 -68 -39 -68 -636 0
-458 2 -540 15 -565 21 -40 43 -50 112 -50 53 0 62 3 89 31 l29 30 3 425 c3
360 5 424 17 424 13 0 15 -153 17 -1102 3 -1209 -1 -1139 63 -1178 24 -15 50
-20 104 -20 81 0 118 14 147 57 18 27 19 59 22 696 3 656 3 667 22 667 20 0
20 -10 20 -656 0 -592 2 -659 17 -691 25 -54 65 -73 151 -73 84 0 119 15 148
64 18 30 19 74 22 1134 2 952 4 1102 17 1102 12 0 15 -63 17 -424 l3 -425 29
-30 c27 -28 36 -31 91 -31 68 0 96 14 114 57 8 21 11 176 9 574 l-3 546 -28
37 c-36 46 -85 79 -162 108 -58 21 -74 22 -425 25 -268 1 -378 -2 -415 -11z"/>
<path fill="#6e7c91" d="M895 3046 c-144 -73 -397 -299 -507 -452 -297 -415 -304 -860 -20
-1288 54 -82 208 -245 307 -326 369 -302 905 -503 1525 -571 148 -16 572 -16
720 0 570 63 1048 230 1430 499 119 83 339 302 405 402 279 422 271 873 -23
1284 -142 198 -482 476 -582 476 -43 0 -112 -42 -132 -80 -23 -45 -23 -107 1
-146 11 -18 67 -64 127 -105 198 -135 354 -305 433 -473 61 -129 75 -193 75
-336 0 -114 -3 -133 -33 -220 -39 -116 -84 -197 -160 -292 -186 -234 -492
-427 -875 -553 -339 -111 -631 -155 -1036 -155 -393 0 -720 52 -1050 165 -737
254 -1141 750 -1015 1246 22 87 93 230 154 310 74 97 212 224 334 307 59 40
115 85 125 100 25 38 23 123 -4 158 -54 73 -121 90 -199 50z"/>
</g>
</svg>
