<svg width="64" height="64" xmlns="http://www.w3.org/2000/svg">

 <g>
  <title>background</title>
  <rect fill="none" id="canvas_background" height="402" width="582" y="-1" x="-1"/>
 </g>
 <g>
  <title>Layer 1</title>
  <g id="Speech_x5F_Balloon_x5F_Empty">
   <g id="svg_1">
    <path id="svg_2" d="m60.844,1l-19.688,0c-1.188,0 -2.156,0.925 -2.156,2.062l0,19.666c0,0.598 0.233,1.161 0.661,1.59c0.427,0.426 0.992,0.66 1.59,0.66c0.601,0 1.165,-0.234 1.581,-0.65l4.948,-4.778c0.354,-0.354 0.825,-0.55 1.325,-0.55l11.738,0c1.189,0 2.157,-0.925 2.157,-2.062l0,-13.876c0,-1.137 -0.968,-2.062 -2.156,-2.062zm0.656,15.938c0,0.311 -0.295,0.562 -0.656,0.562l-11.739,0c-0.9,0 -1.749,0.352 -2.376,0.979l-4.948,4.779c-0.286,0.284 -0.773,0.285 -1.06,-0.001c-0.144,-0.146 -0.221,-0.329 -0.221,-0.529l0.001,-12.728l-0.001,0l0,-6.938c0,-0.311 0.294,-0.562 0.656,-0.562l19.688,0c0.361,0 0.656,0.252 0.656,0.562l0,13.876z" fill="#A2ACB3"/>
   </g>
  </g>
  <g id="svg_3">
   <path id="svg_4" d="m13.744,23.271c-0.183,0 -0.367,-0.066 -0.51,-0.2l-10.24,-9.511c-2.655,-2.655 -2.655,-6.945 -0.02,-9.581c1.277,-1.276 2.976,-1.979 4.781,-1.979s3.503,0.703 4.78,1.979c0.487,0.487 0.894,1.042 1.208,1.645c0.315,-0.603 0.722,-1.157 1.209,-1.645c1.277,-1.276 2.975,-1.979 4.781,-1.979c1.806,0 3.504,0.703 4.78,1.979c2.636,2.636 2.636,6.926 0,9.562l-10.259,9.53c-0.143,0.134 -0.327,0.2 -0.51,0.2zm-5.989,-19.771c-1.405,0 -2.727,0.547 -3.721,1.54c-2.051,2.052 -2.051,5.39 0,7.44l9.709,9.018l9.729,-9.037c2.031,-2.031 2.031,-5.369 -0.02,-7.421c-0.993,-0.993 -2.314,-1.54 -3.72,-1.54s-2.727,0.547 -3.72,1.54c-0.875,0.874 -1.415,2.032 -1.521,3.261c-0.022,0.322 -0.249,0.604 -0.57,0.683c-0.359,0.087 -0.727,-0.094 -0.87,-0.435c-0.03,-0.072 -0.049,-0.154 -0.056,-0.236l0,0c-0.104,-1.232 -0.644,-2.395 -1.521,-3.272c-0.993,-0.994 -2.313,-1.541 -3.719,-1.541z" fill="#A2ACB3"/>
  </g>
  <g id="Speech_x5F_Balloon_x5F_Empty_2_">
   <g id="svg_5">
    <path id="svg_6" d="m60.844,38l-19.688,0c-1.188,0 -2.156,0.926 -2.156,2.062l0,19.666c0,0.598 0.233,1.161 0.661,1.59c0.427,0.426 0.992,0.66 1.59,0.66c0.601,0 1.165,-0.234 1.581,-0.65l4.948,-4.778c0.354,-0.354 0.825,-0.55 1.325,-0.55l11.738,0c1.189,0 2.157,-0.925 2.157,-2.062l0,-13.876c0,-1.136 -0.968,-2.062 -2.156,-2.062zm0.656,15.938c0,0.311 -0.295,0.562 -0.656,0.562l-11.739,0c-0.9,0 -1.749,0.352 -2.376,0.979l-4.948,4.779c-0.286,0.284 -0.773,0.285 -1.06,-0.001c-0.144,-0.146 -0.221,-0.329 -0.221,-0.529l0.001,-12.728l-0.001,0l0,-6.938c0,-0.311 0.294,-0.562 0.656,-0.562l19.688,0c0.361,0 0.656,0.252 0.656,0.562l0,13.876z" fill="#ff6f35"/>
   </g>
  </g>
  <g id="svg_7">
   <path id="svg_8" d="m13.744,60.271c-0.183,0 -0.367,-0.066 -0.51,-0.2l-10.24,-9.511c-2.655,-2.655 -2.655,-6.945 -0.02,-9.581c1.277,-1.276 2.976,-1.979 4.781,-1.979s3.503,0.703 4.78,1.979c0.487,0.487 0.894,1.042 1.208,1.645c0.315,-0.603 0.722,-1.157 1.209,-1.645c1.277,-1.276 2.975,-1.979 4.781,-1.979c1.806,0 3.504,0.703 4.78,1.979c2.636,2.636 2.636,6.926 0,9.562l-10.259,9.53c-0.143,0.134 -0.327,0.2 -0.51,0.2zm-5.989,-19.771c-1.405,0 -2.727,0.547 -3.721,1.54c-2.051,2.052 -2.051,5.39 0,7.44l9.709,9.018l9.729,-9.037c2.031,-2.031 2.031,-5.369 -0.02,-7.421c-0.993,-0.993 -2.314,-1.54 -3.72,-1.54s-2.727,0.547 -3.72,1.54c-0.875,0.874 -1.415,2.032 -1.521,3.261c-0.022,0.322 -0.249,0.604 -0.57,0.683c-0.359,0.087 -0.727,-0.094 -0.87,-0.435c-0.03,-0.072 -0.049,-0.154 -0.056,-0.236l0,0c-0.104,-1.232 -0.644,-2.395 -1.521,-3.272c-0.993,-0.994 -2.313,-1.541 -3.719,-1.541z" fill="#ff6f35"/>
  </g>
 </g>
</svg>