<svg width="20" height="20" xmlns="http://www.w3.org/2000/svg">
 <g>
  <title>background</title>
  <rect x="-1" y="-1" width="22" height="22" id="canvas_background" fill="none"/>
 </g>

 <g>
  <title>Layer 1</title>
  <g stroke="null" id="svg_172">
   <g stroke="null" transform="matrix(0.035874420996791404,0,0,0.035874420996791404,0.1833800574722062,0.2370292189381189) " id="svg_170">
    <title stroke="null" transform="translate(10.453130722045898,3.484376907348633) translate(-55.550655364990234,24.689180374145508) translate(23.189062118530273,0) translate(0,-66.81095123291016) ">background</title>
    <rect stroke="null" x="-22.908463" y="-39.637394" width="614" height="794" id="svg_168" fill="none"/>
   </g>
   <g stroke="null" transform="matrix(0.035874420996791404,0,0,0.035874420996791404,0.1833800574722062,0.2370292189381189) " id="svg_171">
    <title stroke="null" transform="translate(10.453130722045898,3.484376907348633) translate(-55.550655364990234,24.689180374145508) translate(23.189062118530273,0) translate(0,-66.81095123291016) ">Layer 1</title>
    <g stroke="null" id="svg_126">
     <g stroke="null" id="svg_127">
      <g stroke="null" id="svg_164">
       <g stroke="null" id="svg_165">
        <g stroke="null" id="svg_166">
         <path stroke="null" d="m422.115529,283.656709c-57.986469,0 -105.004586,47.033205 -105.004586,105.00538c0,57.957087 47.018117,104.961704 105.004586,104.961704c57.957881,0 104.975998,-47.003822 104.975998,-104.961704c0,-57.972969 -47.018117,-105.00538 -104.975998,-105.00538zm6.737294,182.607349l0,-9.064853c0,-3.749823 -3.024,-6.780176 -6.737294,-6.780176c-3.749823,0 -6.766676,3.038294 -6.766676,6.780176l0,9.064853c-37.594323,-3.232059 -67.625469,-33.270352 -70.858322,-70.858322l9.093441,0c3.714088,0 6.751588,-3.024794 6.751588,-6.737294c0,-3.778412 -3.0375,-6.766676 -6.751588,-6.766676l-9.093441,0c3.232059,-37.602264 33.270352,-67.611175 70.858322,-70.858322l0,9.079147c0,3.735529 3.024794,6.766676 6.766676,6.766676c3.714088,0 6.737294,-3.038294 6.737294,-6.766676l0,-9.079147c37.608617,3.247147 67.640557,33.256058 70.858322,70.858322l-9.093441,0c-3.734735,0 -6.751588,2.994618 -6.751588,6.766676c0,3.721235 3.024,6.737294 6.751588,6.737294l9.093441,0c-3.210618,37.587176 -33.249705,67.618322 -70.858322,70.858322z" id="svg_167" fill="#ffffff"/>
        </g>
       </g>
      </g>
      <g stroke="null" id="svg_160">
       <g stroke="null" id="svg_161">
        <g stroke="null" id="svg_162">
         <path stroke="null" d="m461.232175,378.511678l-24.356382,0c-3.247147,-4.682912 -8.640794,-7.792676 -14.761058,-7.792676c-0.092912,0 -0.193765,0.028588 -0.301765,0.028588l-22.194,-31.245352c-3.232059,-4.547118 -9.567529,-5.6025 -14.128941,-2.384735c-4.547118,3.247147 -5.639029,9.596117 -2.384735,14.157529l22.209088,31.258852c-0.682147,1.917794 -1.119706,3.957882 -1.119706,6.134559c0,9.897882 8.008676,17.906558 17.920058,17.906558c6.120265,0 11.5425,-3.081176 14.761058,-7.779176l24.356382,0c5.588206,0 10.135323,-4.516941 10.135323,-10.120235c0,-5.631088 -4.546323,-10.163912 -10.135323,-10.163912l0.000001,0z" id="svg_163" fill="#ffffff"/>
        </g>
       </g>
      </g>
      <g stroke="null" id="svg_156">
       <g stroke="null" id="svg_157">
        <g stroke="null" id="svg_158">
         <path stroke="null" d="m142.139035,179.686065c18.3735,0 33.241764,-14.882558 33.241764,-33.234617l0,-72.11541c0,-18.359205 -14.868264,-33.234617 -33.241764,-33.234617c-18.359205,0 -33.220323,14.875411 -33.220323,33.234617l0,72.122557c0,18.344911 14.860323,33.22747 33.220323,33.22747z" id="svg_159" fill="#ffffff"/>
        </g>
       </g>
      </g>
      <g stroke="null" id="svg_152">
       <g stroke="null" id="svg_153">
        <g stroke="null" id="svg_154">
         <path stroke="null" d="m345.697589,179.686065c18.374294,0 33.241764,-14.882558 33.241764,-33.234617l0,-72.11541c0,-18.359205 -14.868264,-33.234617 -33.241764,-33.234617c-18.344911,0 -33.219529,14.875411 -33.219529,33.234617l0,72.122557c-0.007941,18.344911 14.875411,33.22747 33.219529,33.22747z" id="svg_155" fill="#ffffff"/>
        </g>
       </g>
      </g>
      <g stroke="null" id="svg_148">
       <g stroke="null" id="svg_149">
        <g stroke="null" id="svg_150">
         <path stroke="null" d="m187.175034,271.962533c0,-9.488117 -7.671176,-17.173588 -17.181529,-17.173588l-31.848088,0c-9.488117,0 -17.195029,7.68547 -17.195029,17.173588l0,31.834588c0,9.502412 7.706912,17.210117 17.195029,17.210117l31.848088,0c9.502412,0 17.181529,-7.707706 17.181529,-17.210117l0,-31.834588z" id="svg_151" fill="#ffffff"/>
        </g>
       </g>
      </g>
      <g stroke="null" id="svg_144">
       <g stroke="null" id="svg_145">
        <g stroke="null" id="svg_146">
         <path stroke="null" d="m277.045326,271.983974c0,-9.488117 -7.692617,-17.166441 -17.159294,-17.166441l-31.863176,0c-9.488117,0 -17.167235,7.678323 -17.167235,17.166441l0,31.841735c0,9.473823 7.678323,17.181529 17.167235,17.181529l31.863176,0c9.473823,0 17.159294,-7.707706 17.159294,-17.181529l0,-31.841735z" id="svg_147" fill="#ffffff"/>
        </g>
       </g>
      </g>
      <g stroke="null" id="svg_140">
       <g stroke="null" id="svg_141">
        <g stroke="null" id="svg_142">
         <path stroke="null" d="m317.879649,254.788945c-9.503206,0 -17.195823,7.68547 -17.195823,17.173588l0,31.834588c0,8.597117 6.406941,15.378088 14.62447,16.663764c12.597882,-19.623441 30.440117,-35.512146 51.565234,-45.783264l0,-2.715088c0,-9.488117 -7.678323,-17.173588 -17.181529,-17.173588l-31.812352,0z" id="svg_143" fill="#ffffff"/>
        </g>
       </g>
      </g>
      <g stroke="null" id="svg_136">
       <g stroke="null" id="svg_137">
        <g stroke="null" id="svg_138">
         <path stroke="null" d="m138.152564,341.082532c-9.488117,0 -17.195823,7.678323 -17.195823,17.166441l0,31.848088c0,9.488117 7.707706,17.166441 17.195823,17.166441l31.863176,0c9.488117,0 17.159294,-7.678323 17.159294,-17.166441l0,-31.848088c0,-9.488117 -7.671176,-17.166441 -17.159294,-17.166441l-31.863176,0z" id="svg_139" fill="#ffffff"/>
        </g>
       </g>
      </g>
      <g stroke="null" id="svg_132">
       <g stroke="null" id="svg_133">
        <g stroke="null" id="svg_134">
         <path stroke="null" d="m259.849503,341.096826l-31.833793,0c-9.488117,0 -17.166441,7.693412 -17.166441,17.181529l0,31.819499c0,9.488117 7.678323,17.166441 17.166441,17.166441l31.833793,0c9.473823,0 17.167235,-7.678323 17.167235,-17.166441l0,-31.819499c0,-9.488912 -7.693412,-17.181529 -17.167235,-17.181529z" id="svg_135" fill="#ffffff"/>
        </g>
       </g>
      </g>
      <g stroke="null" id="svg_128">
       <g stroke="null" id="svg_129">
        <g stroke="null" id="svg_130">
         <path stroke="null" d="m306.278384,440.154265l-161.575143,0c-27.811588,0 -50.444734,-22.632352 -50.444734,-50.415352l0,-168.759526l299.348993,0l0,44.159293c9.172853,-2.111559 18.676058,-3.347206 28.508029,-3.347206c8.432735,0 16.663764,0.869559 24.643852,2.457l0,-158.724261l-47.879734,0l0,40.927234c0,29.319617 -23.840205,53.166969 -53.182058,53.166969c-29.326764,0 -53.166175,-23.846558 -53.166175,-53.166969l0,-40.927234l-97.21191,0l0,40.927234c0,29.319617 -23.854499,53.166969 -53.181264,53.166969c-29.313264,0 -53.166969,-23.846558 -53.166969,-53.166969l0,-40.927234l-47.879734,0l0,284.207553c0,57.203469 46.385999,103.611704 103.611704,103.611704l198.438084,0c2.356147,0 4.682912,-0.193765 6.996176,-0.345441c-19.063588,-13.173617 -34.291587,-31.454205 -43.859117,-52.843764z" id="svg_131" fill="#ffffff"/>
        </g>
       </g>
      </g>
     </g>
    </g>
    <g stroke="null" id="svg_125"/>
    <g stroke="null" id="svg_124"/>
    <g stroke="null" id="svg_123"/>
    <g stroke="null" id="svg_122"/>
    <g stroke="null" id="svg_121"/>
    <g stroke="null" id="svg_120"/>
    <g stroke="null" id="svg_119"/>
    <g stroke="null" id="svg_118"/>
    <g stroke="null" id="svg_117"/>
    <g stroke="null" id="svg_116"/>
    <g stroke="null" id="svg_115"/>
    <g stroke="null" id="svg_114"/>
    <g stroke="null" id="svg_113"/>
    <g stroke="null" id="svg_112"/>
    <g stroke="null" id="svg_111"/>
   </g>
  </g>
 </g>
</svg>